<svg xmlns="http://www.w3.org/2000/svg" viewBox="0 0 300 400" role="img" aria-label="Face, rectangular calm">
  <g stroke="var(--outline,#2b241c)" stroke-width="4" stroke-linejoin="round" stroke-linecap="round">
    <path d="M136,220 L164,220 L165,241 L135,241 Z" fill="var(--skin,#dcae86)"/>
    <ellipse cx="86" cy="157" rx="8" ry="11" fill="var(--skin,#dcae86)"/>
    <ellipse cx="214" cy="157" rx="8" ry="11" fill="var(--skin,#dcae86)"/>
    <path d="M150,69 C113,69 88,91 87,125 L91,181 C94,203 119,225 150,230 C181,225 206,203 209,181 L213,125 C212,91 187,69 150,69 Z" fill="var(--skin,#dcae86)"/>
    <path d="M96,188 C109,211 129,225 150,230 C171,225 191,211 204,188 C189,203 171,211 150,211 C129,211 111,203 96,188 Z" fill="var(--skin-shadow,#bd8a63)" stroke="none" opacity=".38"/>
  </g>
  <g fill="none" stroke="var(--outline,#2b241c)" stroke-linecap="round">
    <path d="M113,151 Q126,147 139,151 M161,151 Q174,147 187,151" stroke-width="2.4"/>
    <circle cx="127" cy="151" r="3.6" fill="#33291e" stroke="none"/><circle cx="173" cy="151" r="3.6" fill="#33291e" stroke="none"/>
    <path d="M112,135 Q126,132 140,135 M160,135 Q174,132 188,135" stroke-width="2.8"/>
    <path d="M150,150 L148,174 Q150,178 154,174" stroke-width="3"/>
    <path d="M135,197 Q150,201 165,197" stroke-width="2.8"/>
  </g>
</svg>
