<svg xmlns="http://www.w3.org/2000/svg" viewBox="0 0 300 400" role="img" aria-label="Face, female broad">
  <g stroke="var(--outline,#2b241c)" stroke-width="3.6" stroke-linejoin="round" stroke-linecap="round">
    <path d="M138,220 L162,220 L163,239 L137,239 Z" fill="var(--skin,#dcae86)"/>
    <ellipse cx="86" cy="157" rx="7" ry="10.5" fill="var(--skin,#dcae86)"/>
    <ellipse cx="214" cy="157" rx="7" ry="10.5" fill="var(--skin,#dcae86)"/>
    <path d="M150,70 C112,70 87,94 87,126 C87,153 97,178 113,195 C124,208 138,222 150,222 C162,222 176,208 187,195 C203,178 213,153 213,126 C213,94 188,70 150,70 Z" fill="var(--skin,#dcae86)"/>
    <path d="M113,195 C126,208 139,222 150,222 C161,222 174,208 187,195 C175,203 163,208 150,208 C137,208 125,203 113,195 Z" fill="var(--skin-shadow,#bd8a63)" stroke="none" opacity=".25"/>
  </g>
  <g fill="none" stroke="var(--outline,#2b241c)" stroke-linecap="round">
    <path d="M115,150 Q126,146 138,150 M162,150 Q174,146 185,150" stroke-width="2.2"/>
    <circle cx="127" cy="150" r="3.2" fill="#33291e" stroke="none"/><circle cx="173" cy="150" r="3.2" fill="#33291e" stroke="none"/>
    <path d="M115,135 Q127,132 139,135 M161,135 Q173,132 185,135" stroke-width="2.2"/>
    <path d="M150,150 L147,173 Q150,176 154,173" stroke-width="2.5"/>
    <path d="M138,196 Q150,199 162,196" stroke-width="2.5"/>
  </g>
</svg>
