<svg xmlns="http://www.w3.org/2000/svg" viewBox="0 0 300 400" role="img" aria-label="Male head, angular chin">
  <g stroke="var(--outline,#2b211a)" stroke-width="4" stroke-linejoin="round">
    <path d="M135,196 L165,196 L167,252 L133,252 Z" fill="var(--skin,#e2b48c)"/>
    <ellipse cx="92" cy="152" rx="9" ry="13" fill="var(--skin,#e2b48c)"/>
    <ellipse cx="208" cy="152" rx="9" ry="13" fill="var(--skin,#e2b48c)"/>
    <path d="M150,80 C118,80 94,102 93,134 C92,158 103,176 118,188 L150,214 L182,188 C197,176 208,158 207,134 C206,102 182,80 150,80 Z"
          fill="var(--skin,#e2b48c)"/>
    <path d="M118,188 L150,214 L182,188 C170,196 160,200 150,200 C140,200 130,196 118,188 Z"
          fill="var(--skin-shadow,#c98e64)" stroke="none"/>
  </g>
</svg>
